<svg id="Layer_1" data-name="Layer 1" xmlns="http://www.w3.org/2000/svg" viewBox="0 0 32 32"><defs><style>.cls-1{fill:#efefef;}.cls-2{fill:none;stroke:#efefef;stroke-linecap:round;stroke-linejoin:round;stroke-width:2px;}</style></defs><path class="cls-1" d="M12.87,9.57h0m12.2,0a1.63,1.63,0,0,1,.4,1.2V21.21a1.63,1.63,0,0,1-.4,1.2H12.84L6.92,17.2A1.72,1.72,0,0,1,6.53,16a1.72,1.72,0,0,1,.39-1.2l5.93-5.21H25.07m.07-2H12.78a1.88,1.88,0,0,0-1.26.5L5.6,13.3a3.93,3.93,0,0,0,0,5.4l5.92,5.21a1.88,1.88,0,0,0,1.26.5H25.14c1.29,0,2.33-1.43,2.33-3.2V10.79c0-1.77-1-3.2-2.33-3.2Z"/><line class="cls-2" x1="15.58" y1="13.09" x2="21.42" y2="18.91"/><line class="cls-2" x1="21.42" y1="13.09" x2="15.58" y2="18.91"/></svg>